<svg xmlns="http://www.w3.org/2000/svg" viewBox="0 0 410 404"><defs><linearGradient id="a" x1="6.377" x2="221.39" y1="3.428" y2="234.91" gradientUnits="userSpaceOnUse"><stop stop-color="#41d1ff"/><stop offset="1" stop-color="#bd34fe"/></linearGradient><linearGradient id="b" x1="139.14" x2="324.7" y1="-14.09" y2="305.11" gradientUnits="userSpaceOnUse"><stop stop-color="#ffea83"/><stop offset="0.083" stop-color="#ffdd35"/><stop offset="1" stop-color="#ffa800"/></linearGradient></defs><path fill="url(#a)" d="M399.22 59.525 215.7 388.49c-5.875 10.498-21.437 10.483-27.293-.027L10.35 59.55c-6.34-11.34 3.167-24.69 15.894-22.27l179.28 34.966a15.492 15.492 0 0 0 5.674-.003l172.26-34.95c12.7-2.575 22.28 10.69 15.97 22.02Z"/><path fill="url(#b)" d="m292.86 1.574-110.98 21.27a7.754 7.754 0 0 0-6.192 8.84l21.35 133.46a7.754 7.754 0 0 0 9.635 6.225l30.58-8.43c5.288-1.458 10.25 3.042 9.17 8.432l-9.37 47.308c-1.32 6.677 7.137 10.606 11.131 5.027l2.558-3.694 58.94-128.72c2.3-5.032-1.99-10.74-7.49-9.652l-31.76 6.352c-5.31 1.065-9.823-3.766-8.55-9.015l20.48-84.158c1.26-5.184-3.37-9.93-8.6-8.827Z"/></svg>
